<svg xmlns="http://www.w3.org/2000/svg" viewBox="0 0 512 512" role="img" aria-labelledby="title desc">
  <title id="title">Site Mode LS</title>
  <desc id="desc">Icono de la aplicacion Site Mode LS.</desc>
  <defs>
    <linearGradient id="bg" x1="0%" y1="0%" x2="100%" y2="100%">
      <stop offset="0%" stop-color="#14b8a6" />
      <stop offset="100%" stop-color="#0f172a" />
    </linearGradient>
  </defs>
  <rect width="512" height="512" rx="112" fill="url(#bg)" />
  <path d="M112 128h288c17.673 0 32 14.327 32 32v192c0 17.673-14.327 32-32 32H112c-17.673 0-32-14.327-32-32V160c0-17.673 14.327-32 32-32Z" fill="#0b1220" fill-opacity="0.28" />
  <path d="M166 168h54v176h-54zM252 168h54c49.706 0 90 40.294 90 90v0c0 49.706-40.294 90-90 90h-54zM306 216v84c23.196 0 42-18.804 42-42s-18.804-42-42-42Z" fill="#f8fafc" />
</svg>